<?xml version="1.0" standalone="yes"?>
<svg width="106" height="107">
<path style="fill:#efefed; stroke:none;" d="M0 0L0 2L106 2L106 0L0 0z"/>
<path style="fill:#b7b9b9; stroke:none;" d="M0 2C8.59642 5.60722 22.6777 3 32 3L106 3C97.4036 -0.607216 83.3223 2 74 2L0 2z"/>
<path style="fill:#2d3023; stroke:none;" d="M0 3L0 9L10 10L0 3z"/>
<path style="fill:#4a4d38; stroke:none;" d="M1 3C1.80197 7.8055 4.56584 7.94745 9 8L4 3L1 3z"/>
<path style="fill:#686b4b; stroke:none;" d="M4 3L10 10C13.1627 8.34285 13.7553 6.4888 14 3L4 3z"/>
<path style="fill:#7a7b55; stroke:none;" d="M14 3L12 8C13.2198 11.5549 14.6238 13.3375 18 15L16 12C18.1909 8.705 20.106 7.62466 24 7L23 10L33 12C27.2904 6.58736 22.178 3.24149 14 3z"/>
<path style="fill:#888963; stroke:none;" d="M20 3L20 5L33 11C29.1801 12.0271 26.7144 10.8724 23 10L24 7C19.8925 7.37687 17.7423 8.15321 16 12L27 20L36 19L36 21L45 19C44.0317 16.0359 43.0662 15.4971 40 15L40 4L20 3z"/>
<path style="fill:#7a7b55; stroke:none;" d="M38 3L40 15C42.7817 15.8125 43.6274 16.4527 45 19L36 21L36 19L27 20L27 27C28.9208 30.2249 28.381 32.987 32 35L36 23C45.1022 22.8111 52.3736 15.8653 41 11L46 4L38 3z"/>
<path style="fill:#5d5f4e; stroke:none;" d="M41 10L49 19L48 3L41 10z"/>
<path style="fill:#4a4d38; stroke:none;" d="M48 3C48.0281 11.1967 49.7647 14.4199 46 22C57.145 19.4421 56.8335 9.71455 48 3z"/>
<path style="fill:#363828; stroke:none;" d="M50 3C50.3229 5.47882 51.2081 13.5855 55 11L58 13L54 3L50 3z"/>
<path style="fill:#2d3023; stroke:none;" d="M54 3L58 13L56 11L55 19L60 19C59.9947 12.1295 58.2606 8.38788 54 3z"/>
<path style="fill:#161812; stroke:none;" d="M55 3L60 19L44 23C49.6967 25.2226 55.289 20.6159 61 20L59 3L55 3z"/>
<path style="fill:#010101; stroke:none;" d="M59 3L61 20C54.4337 20.3544 44.9285 23.1431 39 26C44.3472 28.1801 52.1243 25.0039 58 25L58 30C54.6586 29.9314 50.3983 28.4762 48 31L45 29C46.31 35.1133 56.872 34.5969 61 32C59.7993 41.8445 54.1505 66.0694 45 71C43.9575 76.0197 40.8293 77.9043 36 79C32.7516 86.1464 26.0888 86.9953 19 87L29 89L26 93C35.3135 92.781 39.8672 85.5102 48 82C48.022 89.6608 52.3224 96.0215 46 102C51.2165 104.189 58.3809 103 64 103L100 103L100 3L59 3z"/>
<path style="fill:#ffffff; stroke:none;" d="M100 3L100 103L0 103L0 107L106 107L106 3L100 3z"/>
<path style="fill:#161812; stroke:none;" d="M0 9L0 13L25 24C22.9539 13.9708 9.09956 9.3917 0 9z"/>
<path style="fill:#363828; stroke:none;" d="M10 10L13 12L10 10z"/>
<path style="fill:#2d3023; stroke:none;" d="M0 13L0 23L7 21L3 19L10 16L0 13z"/>
<path style="fill:#4a4d38; stroke:none;" d="M18 15L21 17L18 15M3 18L10 21L7 17L11 17C7.95993 15.8229 5.88677 16.6134 3 18z"/>
<path style="fill:#686b4b; stroke:none;" d="M21 16C22.988 18.0611 24.1571 18.5787 27 19L27 17L21 16z"/>
<path style="fill:#7a7b55; stroke:none;" d="M7 17C9.24565 20.8838 12.694 21.6212 17 22C15.4581 17.241 11.5397 17.0972 7 17z"/>
<path style="fill:#585e40; stroke:none;" d="M24 19L28 22L24 19z"/>
<path style="fill:#4a4d38; stroke:none;" d="M17 20L16 23L23 25L17 20z"/>
<path style="fill:#363828; stroke:none;" d="M24 20L25 24L20 25C24.7771 29.3188 30.2616 23.2745 24 20z"/>
<path style="fill:#161812; stroke:none;" d="M0 24L9 25L4 24L11 22C6.93405 20.2945 3.07051 20.8645 0 24z"/>
<path style="fill:#434730; stroke:none;" d="M11.6667 21.3333L12.3333 21.6667L11.6667 21.3333z"/>
<path style="fill:#010101; stroke:none;" d="M4 23C8.37689 25.299 12.2183 26.8585 16 23L4 23z"/>
<path style="fill:#25291c; stroke:none;" d="M13 22L16 23L13 22z"/>
<path style="fill:#2d3023; stroke:none;" d="M37 53C43.9618 46.1814 34.707 35.0889 41 28L39 26L48 23C32.3242 16.5925 35.4281 45.7674 37 53z"/>
<path style="fill:#25291c; stroke:none;" d="M15 24C17.0109 26.9403 18.4262 28.422 22 29C20.505 25.3525 19.0415 23.6014 15 24z"/>
<path style="fill:#585e40; stroke:none;" d="M36 23L35 35C37.0229 30.3709 37.0124 26.5416 42 24L36 23z"/>
<path style="fill:#4a4d38; stroke:none;" d="M0 24C4.4808 27.8363 15.1336 31.0452 21 32C19.0845 25.4462 5.85707 24.6954 0 24z"/>
<path style="fill:#5d5f4e; stroke:none;" d="M0 25C0 39.1041 2.01314 47.096 7 60C10.8041 58.5774 18.0993 58.2033 19 54C15.0145 56.2563 11.4917 56.3743 7 56C6.44668 48.9985 5.2498 40.244 2 34L7 34L7 30L15 31C13.7111 26.5976 4.34165 26.2459 0 25z"/>
<path style="fill:#363828; stroke:none;" d="M13 26L17 28C16.386 25.1492 15.6973 25.1456 13 26z"/>
<path style="fill:#4a4d38; stroke:none;" d="M26 25L23 27L23 33C26.2678 31.0984 26.9581 28.5483 28 25L26 25z"/>
<path style="fill:#161812; stroke:none;" d="M48 25L57 29L51 29L58 30L58 25L48 25z"/>
<path style="fill:#5d5f4e; stroke:none;" d="M43 27L52 28C49.5873 25.2424 46.3167 26.2123 43 27z"/>
<path style="fill:#434730; stroke:none;" d="M48 28L57 29C54.5728 25.2468 51.7545 27.1662 48 28z"/>
<path style="fill:#686b4b; stroke:none;" d="M27 27L25 35L15 31C16.0173 33.4814 16.4385 34.2644 19 35L20 43L30 36C29.5361 42.3223 25.9375 45.6266 29 52C30.0602 47.6068 28.5395 44.7383 33 42L35 51L31 51L36 52L35 27L32 35C29.1536 32.5055 28.8051 30.744 29 27L27 27z"/>
<path style="fill:#363828; stroke:none;" d="M38 29C40.5307 29.7101 41.5155 29.1314 43 27L38 29z"/>
<path style="fill:#7a7b55; stroke:none;" d="M46 27L51 28L46 27z"/>
<path style="fill:#585e40; stroke:none;" d="M22 28L19 32C20.9001 34.0127 22.2606 34.6113 25 35L24 28L22 28z"/>
<path style="fill:#25291c; stroke:none;" d="M40 32L44 32C45.4005 30.656 45.4913 30.0706 47 31C48.8355 26.131 41.4302 29.1741 40 32z"/>
<path style="fill:#7a7b55; stroke:none;" d="M7 30L7 34L2 34L7 56L18 56C12.3497 53.3659 7.61482 50.1462 10 43C7.39874 40.8469 6.50717 39.344 6 36L17 36L16 39L18 43C20.8055 40.8077 19.5893 38.2379 19 35C14.6076 32.5866 12.3449 30.2486 7 30z"/>
<path style="fill:#5d5f4e; stroke:none;" d="M38 30L40 47C42.124 43.8909 41.9894 40.6957 42 37C48.7229 37.8689 50.8916 40.3785 56 44C54.8153 36.7212 48.649 33.8504 43 30L38 30z"/>
<path style="fill:#363828; stroke:none;" d="M47 32L54.865 41.0394C56.1979 47.2586 48.1506 55.7411 48 63C55.9097 58.129 60.4398 40.8119 61 32C55.2232 34.5256 52.885 32.4079 47 32z"/>
<path style="fill:#4a4d38; stroke:none;" d="M39 34L39 44C41.4562 40.7411 41.0605 37.4406 39 34z"/>
<path style="fill:#888963; stroke:none;" d="M6 36C6.26878 39.565 6.83214 41.2565 10 43C7.40429 47.5559 12.6096 59.4999 18.2184 53.3958C21.8621 49.4303 17.4297 40.5647 17 36L6 36z"/>
<path style="fill:#5d5f4e; stroke:none;" d="M19 43C19.0545 47.6047 19.4037 50.3101 24 52L23 48L27 49L30 36L19 43z"/>
<path style="fill:#686b4b; stroke:none;" d="M42 37C41.9332 45.0708 36.3887 57.8006 47 61C47.2455 49.1703 60.9941 38.5116 42 37z"/>
<path style="fill:#434730; stroke:none;" d="M35 41L36 49C37.2318 45.9774 36.8253 43.672 35 41z"/>
<path style="fill:#7a7b55; stroke:none;" d="M30 52L35 51L33 42C28.2654 43.9032 28.9525 47.5889 30 52z"/>
<path style="fill:#4a4d38; stroke:none;" d="M20 49L26 44C22.0456 42.7428 20.578 45.3733 20 49M52 44L47 61C42.6263 58.8529 40.7584 55.7551 40 51C33.9985 56.121 39.7854 59.4383 45 62L39 70L47 71L54 44L52 44z"/>
<path style="fill:#a7a37d; stroke:none;" d="M30 46L33 49L30 46z"/>
<path style="fill:#585e40; stroke:none;" d="M0 47C0.0216285 54.8382 2.3696 61.7 5 69C12.3294 71.0575 21.2509 89.9812 30.4012 82.9722L35 76C33.9827 73.5186 33.5615 72.7356 31 72L32 75L27.5718 79.9722C20.3234 84.5299 16.9714 70.9929 11 70C10.7049 63.0012 10.3583 59.8436 18 58L19 62L22 62L26 57L26 53L19 54L19 57L7 60L2 47L0 47z"/>
<path style="fill:#434730; stroke:none;" d="M40 47L40 51L40 47z"/>
<path style="fill:#7a7b55; stroke:none;" d="M15 48L15 50L17 50L17 48L15 48z"/>
<path style="fill:#2d3023; stroke:none;" d="M23 48C27.1506 54.638 33.3181 54.7348 35 63C29.1795 62.9518 21.3062 63.3897 18 58C14.482 58.5315 7.28446 60.8679 12 65C12.5667 60.6882 20.4274 63 24 63L22 64L32 66L27 65L41 64L39 67C41.9994 65.9496 43.5528 64.844 45 62L36 54L33 55C30.6164 51.4349 27.2057 48.8832 23 48z"/>
<path style="fill:#686b4b; stroke:none;" d="M23 50L24 52C21.2607 51.7201 20.5325 51.7304 19 54L26 53L26 57C23.115 57.839 22.7109 59.1153 22 62L35 63L34 58L32 58L33 55L23 50z"/>
<path style="fill:#4a4d38; stroke:none;" d="M30 52L35 53L30 52z"/>
<path style="fill:#010101; stroke:none;" d="M33 55L37 52L33 55z"/>
<path style="fill:#434730; stroke:none;" d="M0 55L3 71C9.10517 71.4641 11.8461 76.3046 17 79C14.592 73.9384 10.6496 69.8719 5 69L0 55M28 56L27 61C29.1222 59.535 29.4743 58.5431 30 56L28 56M32 57L33 61L35 56L32 57z"/>
<path style="fill:#25291c; stroke:none;" d="M51 59L47 71C50.101 67.5994 51.9473 63.4593 53 59L51 59z"/>
<path style="fill:#2d3023; stroke:none;" d="M0 60C0 64.6015 -1.30635 71.6936 1.17901 75.7716C6.06563 83.7896 21.704 86 30 86L30 84C18.071 83.8683 13.9051 71.3568 3 71L0 60z"/>
<path style="fill:#25291c; stroke:none;" d="M11 63L24 64C20.1019 62.349 15.0821 61.9687 11 63z"/>
<path style="fill:#585e40; stroke:none;" d="M12 64L14 67C15.1178 64.8603 14.2508 64.4732 12 64z"/>
<path style="fill:#4a4d38; stroke:none;" d="M15 64C16.361 68.708 19.5178 70.4548 24 72L24 69C28.0845 70.3273 33.5752 70.8708 35 66L30 66L31 69L22 67L26 66L15 64z"/>
<path style="fill:#161812; stroke:none;" d="M27 64L35 66L35 69L23 70C29.7295 75.0919 37.3144 70.0215 41 64L27 64z"/>
<path style="fill:#7a7b55; stroke:none;" d="M11 65L11 70C19.5755 72.5937 25.1509 90.3547 32 73C23.2515 72.9208 18.7943 67.1143 11 65z"/>
<path style="fill:#888963; stroke:none;" d="M22 66L25 68L22 66z"/>
<path style="fill:#686b4b; stroke:none;" d="M25 66C26.6345 68.5453 27.9935 68.7794 31 69C29.3655 66.4547 28.0065 66.2206 25 66z"/>
<path style="fill:#434730; stroke:none;" d="M38 67C36.1214 70.0677 34.564 70.7279 31 71L35 76C32.1822 77.8233 32.1049 79.7155 32 83C36.4813 77.844 37.4864 73.7351 45 74L38 67z"/>
<path style="fill:#363828; stroke:none;" d="M24 72L31 73L24 72z"/>
<path style="fill:#161812; stroke:none;" d="M30 86C33.083 84.1108 35.0164 82.5288 36 79C39.8566 78.4862 42.7837 77.2485 45 74C36.848 73.3467 33.2962 79.0613 30 86z"/>
<path style="fill:#888963; stroke:none;" d="M19 74C21.3403 78.6373 25.971 80.1606 27 74L19 74z"/>
<path style="fill:#010101; stroke:none;" d="M0 75C0.569986 82.2312 7.96918 88.0167 15 86L15 84L0 75z"/>
<path style="fill:#363828; stroke:none;" d="M0 80L0 103L15 103L8 92L35 98L34 103C40.6231 102.999 49.139 102.803 48 94L42 96L44 89L26.9606 95.831C14.6599 96.774 9.77851 84.2028 0 80z"/>
<path style="fill:#161812; stroke:none;" d="M38 89L46 84L45 92L49 92L48 82C43.6946 83.2671 40.1979 84.9933 38 89M15 84L10 87C12.237 92.5657 24.39 93.6433 30 94L26 93L29 89L19 88L29 87L15 84z"/>
<path style="fill:#25291c; stroke:none;" d="M45 84C33.2382 91.9087 28.6656 92.7376 15 91C22.0114 103.043 35.452 90.653 44 89L42 96L48 94C47.9383 97.9398 46.2758 99.901 44 103C49.8253 100.614 53.719 92.6798 45 92C45.8644 89.0604 46.1879 86.8519 45 84z"/>
<path style="fill:#4a4d38; stroke:none;" d="M8 92C13.2708 104.422 22.3345 103 34 103L35 98L8 92z"/>
</svg>
